<svg width="36" height="36" viewBox="0 0 36 36" fill="none" xmlns="http://www.w3.org/2000/svg">
<rect width="36" height="36" rx="10" fill="#F5F4F2"/>
<path fill-rule="evenodd" clip-rule="evenodd" d="M14.4533 24.4651C14.1828 24.1972 14.181 23.7628 14.4552 23.4949L20.5602 17.5144C20.8335 17.2464 21.275 17.2473 21.5464 17.5162C21.6812 17.6497 21.75 17.8253 21.75 17.9999C21.75 18.1764 21.6812 18.352 21.5446 18.4855L15.4395 24.466C15.1663 24.7339 14.7247 24.733 14.4533 24.4651ZM14.4553 12.5057C14.1811 12.2378 14.1829 11.8034 14.4534 11.5355C14.7248 11.2666 15.1664 11.2657 15.4396 11.5328L19.4942 15.5042C19.6308 15.6377 19.6996 15.8142 19.6996 15.9898C19.6996 16.1644 19.6308 16.34 19.496 16.4735C19.2246 16.7424 18.7831 16.7433 18.5098 16.4763L14.4553 12.5057Z" fill="#868686"/>
</svg>
