<svg width="20" height="20" viewBox="0 0 20 20" fill="none" xmlns="http://www.w3.org/2000/svg">
<path fill-rule="evenodd" clip-rule="evenodd" d="M6.45333 16.4651C6.18284 16.1972 6.18098 15.7628 6.45519 15.4949L12.5602 9.51436C12.8335 9.24642 13.275 9.24734 13.5464 9.51619C13.6812 9.6497 13.75 9.82527 13.75 9.99993C13.75 10.1764 13.6812 10.352 13.5446 10.4855L7.43954 16.466C7.16627 16.7339 6.72475 16.733 6.45333 16.4651ZM6.45528 4.50573C6.18108 4.23779 6.18294 3.80343 6.45343 3.53549C6.72484 3.26665 7.16636 3.26573 7.43964 3.53275L11.4942 7.50421C11.6308 7.63772 11.6996 7.81421 11.6996 7.98978C11.6996 8.16444 11.6308 8.34002 11.496 8.47353C11.2246 8.74238 10.7831 8.74329 10.5098 8.47627L6.45528 4.50573Z" fill="#868686"/>
</svg>
