<svg width="36" height="36" viewBox="0 0 36 36" fill="none" xmlns="http://www.w3.org/2000/svg">
<rect width="36" height="36" rx="10" fill="#F5F4F2"/>
<path fill-rule="evenodd" clip-rule="evenodd" d="M21.5467 11.5349C21.8172 11.8028 21.819 12.2372 21.5448 12.5051L15.4398 18.4856C15.1665 18.7536 14.725 18.7527 14.4536 18.4838C14.3188 18.3503 14.25 18.1747 14.25 18.0001C14.25 17.8236 14.3188 17.648 14.4554 17.5145L20.5605 11.534C20.8337 11.2661 21.2753 11.267 21.5467 11.5349ZM21.5447 23.4943C21.8189 23.7622 21.8171 24.1966 21.5466 24.4645C21.2752 24.7334 20.8336 24.7343 20.5604 24.4672L16.5058 20.4958C16.3692 20.3623 16.3004 20.1858 16.3004 20.0102C16.3004 19.8356 16.3692 19.66 16.504 19.5265C16.7754 19.2576 17.2169 19.2567 17.4902 19.5237L21.5447 23.4943Z" fill="#868686"/>
</svg>
