<svg width="20" height="20" viewBox="0 0 20 20" fill="none" xmlns="http://www.w3.org/2000/svg">
<path fill-rule="evenodd" clip-rule="evenodd" d="M13.5467 3.5349C13.8172 3.80284 13.819 4.2372 13.5448 4.50514L7.43978 10.4856C7.1665 10.7536 6.72498 10.7527 6.45356 10.4838C6.31878 10.3503 6.25 10.1747 6.25 10.0001C6.25 9.82358 6.31878 9.64801 6.45542 9.5145L12.5605 3.53399C12.8337 3.26606 13.2753 3.26697 13.5467 3.5349ZM13.5447 15.4943C13.8189 15.7622 13.8171 16.1966 13.5466 16.4645C13.2752 16.7334 12.8336 16.7343 12.5604 16.4672L8.50583 12.4958C8.36919 12.3623 8.30041 12.1858 8.30041 12.0102C8.30041 11.8356 8.36919 11.66 8.50397 11.5265C8.77539 11.2576 9.21691 11.2567 9.49019 11.5237L13.5447 15.4943Z" fill="#868686"/>
</svg>
