<svg width="36" height="36" viewBox="0 0 36 36" fill="none" xmlns="http://www.w3.org/2000/svg">
<rect width="36" height="36" rx="10" fill="#F5F4F2"/>
<g clip-path="url(#clip0_1521_7150)">
<path fill-rule="evenodd" clip-rule="evenodd" d="M12.1025 24.7546C10.5899 23.5015 9.55136 21.7688 9.15934 19.8442C8.76731 17.9195 9.04536 15.9187 9.94732 14.1738C10.8493 12.429 12.3209 11.0451 14.1178 10.2519C15.9147 9.45879 17.9289 9.30409 19.8259 9.81353C21.0107 10.1317 22.1053 10.6971 23.0423 11.4633L23.0468 9.99696C23.0484 9.44468 23.4975 8.99832 24.0498 9C24.6021 9.00167 25.0484 9.45074 25.0467 10.003L25.0345 14.0374C25.0328 14.5897 24.5838 15.036 24.0315 15.0343L19.9971 15.0221C19.4448 15.0204 18.9985 14.5714 19.0002 14.0191C19.0018 13.4668 19.4509 13.0204 20.0032 13.0221L21.7958 13.0276C21.0722 12.4312 20.2249 11.9916 19.3071 11.7451C17.8509 11.354 16.3048 11.4728 14.9254 12.0816C13.546 12.6905 12.4164 13.7528 11.724 15.0922C11.0316 16.4316 10.8182 17.9676 11.1191 19.445C11.42 20.9225 12.2172 22.2525 13.3784 23.2144C14.5395 24.1763 15.9946 24.7121 17.5023 24.7329C19.0099 24.7537 20.4793 24.2583 21.6666 23.3288C22.8538 22.3993 23.6874 21.0917 24.029 19.6231C24.1541 19.0852 24.6916 18.7506 25.2295 18.8757C25.7674 19.0008 26.1021 19.5383 25.977 20.0762C25.532 21.9894 24.446 23.6927 22.8995 24.9036C21.3529 26.1144 19.4387 26.7599 17.4747 26.7328C15.5107 26.7057 13.615 26.0076 12.1025 24.7546Z" fill="#333333"/>
</g>
<defs>
<clipPath id="clip0_1521_7150">
<rect width="24" height="24" fill="white" transform="translate(6 6)"/>
</clipPath>
</defs>
</svg>
