<svg width="36" height="36" viewBox="0 0 36 36" fill="none" xmlns="http://www.w3.org/2000/svg">
<rect width="36" height="36" rx="10" fill="#F5F4F2"/>
<path fill-rule="evenodd" clip-rule="evenodd" d="M17.5467 11.5349C17.8172 11.8028 17.819 12.2372 17.5448 12.5051L11.4398 18.4856C11.1665 18.7536 10.725 18.7527 10.4536 18.4838C10.3188 18.3503 10.25 18.1747 10.25 18.0001C10.25 17.8236 10.3188 17.648 10.4554 17.5145L16.5605 11.534C16.8337 11.2661 17.2753 11.267 17.5467 11.5349ZM17.5447 23.4943C17.8189 23.7622 17.8171 24.1966 17.5466 24.4645C17.2752 24.7334 16.8336 24.7343 16.5604 24.4672L12.5058 20.4958C12.3692 20.3623 12.3004 20.1858 12.3004 20.0102C12.3004 19.8356 12.3692 19.66 12.504 19.5265C12.7754 19.2576 13.2169 19.2567 13.4902 19.5237L17.5447 23.4943Z" fill="#868686"/>
<path fill-rule="evenodd" clip-rule="evenodd" d="M25.5467 11.5349C25.8172 11.8028 25.819 12.2372 25.5448 12.5051L19.4398 18.4856C19.1665 18.7536 18.725 18.7527 18.4536 18.4838C18.3188 18.3503 18.25 18.1747 18.25 18.0001C18.25 17.8236 18.3188 17.648 18.4554 17.5145L24.5605 11.534C24.8337 11.2661 25.2753 11.267 25.5467 11.5349ZM25.5447 23.4943C25.8189 23.7622 25.8171 24.1966 25.5466 24.4645C25.2752 24.7334 24.8336 24.7343 24.5604 24.4672L20.5058 20.4958C20.3692 20.3623 20.3004 20.1858 20.3004 20.0102C20.3004 19.8356 20.3692 19.66 20.504 19.5265C20.7754 19.2576 21.2169 19.2567 21.4902 19.5237L25.5447 23.4943Z" fill="#868686"/>
</svg>
