<svg width="20" height="20" viewBox="0 0 20 20" fill="none" xmlns="http://www.w3.org/2000/svg">
<path fill-rule="evenodd" clip-rule="evenodd" d="M16.2948 4.17164C16.569 3.90371 16.5672 3.46934 16.2967 3.20141C16.0253 2.93347 15.5837 2.93256 15.3105 3.20049L9.20542 9.181C9.06878 9.31451 9 9.49009 9 9.66657C9 9.84123 9.06878 10.0168 9.20356 10.1503C9.47498 10.4192 9.9165 10.4201 10.1898 10.1521L16.2948 4.17164ZM16.2966 16.131C16.5671 15.8631 16.5689 15.4287 16.2947 15.1608L12.2402 11.1902C11.9669 10.9232 11.5254 10.9241 11.254 11.193C11.1192 11.3265 11.0504 11.5021 11.0504 11.6767C11.0504 11.8523 11.1192 12.0288 11.2558 12.1623L15.3104 16.1338C15.5836 16.4008 16.0252 16.3999 16.2966 16.131ZM10.2948 4.17164C10.569 3.90371 10.5672 3.46934 10.2967 3.20141C10.0253 2.93347 9.58373 2.93256 9.31046 3.20049L3.20542 9.181C3.06878 9.31451 3 9.49009 3 9.66657C3 9.84123 3.06878 10.0168 3.20356 10.1503C3.47498 10.4192 3.9165 10.4201 4.18978 10.1521L10.2948 4.17164ZM10.2966 16.131C10.5671 15.8631 10.5689 15.4287 10.2947 15.1608L6.24019 11.1902C5.96691 10.9232 5.52539 10.9241 5.25397 11.193C5.11919 11.3265 5.05041 11.5021 5.05041 11.6767C5.05041 11.8523 5.11919 12.0288 5.25583 12.1623L9.31036 16.1338C9.58364 16.4008 10.0252 16.3999 10.2966 16.131Z" fill="#868686"/>
</svg>
