<svg width="20" height="20" viewBox="0 0 20 20" fill="none" xmlns="http://www.w3.org/2000/svg">
<path fill-rule="evenodd" clip-rule="evenodd" d="M3.70519 15.8284C3.43098 16.0963 3.43284 16.5307 3.70333 16.7986C3.97475 17.0665 4.41627 17.0674 4.68954 16.7995L10.7946 10.819C10.9312 10.6855 11 10.5099 11 10.3334C11 10.1588 10.9312 9.98319 10.7964 9.84968C10.525 9.58083 10.0835 9.57992 9.81023 9.84785L3.70519 15.8284ZM3.70343 3.86899C3.43294 4.13692 3.43108 4.57129 3.70528 4.83922L7.75981 8.80977C8.03309 9.07679 8.47461 9.07587 8.74603 8.80702C8.88081 8.67351 8.94959 8.49794 8.94959 8.32328C8.94959 8.1477 8.88081 7.97122 8.74417 7.83771L4.68964 3.86625C4.41636 3.59923 3.97484 3.60014 3.70343 3.86899ZM9.70519 15.8284C9.43098 16.0963 9.43284 16.5307 9.70333 16.7986C9.97475 17.0665 10.4163 17.0674 10.6895 16.7995L16.7946 10.819C16.9312 10.6855 17 10.5099 17 10.3334C17 10.1588 16.9312 9.98319 16.7964 9.84968C16.525 9.58083 16.0835 9.57992 15.8102 9.84785L9.70519 15.8284ZM9.70343 3.86899C9.43294 4.13692 9.43108 4.57129 9.70528 4.83922L13.7598 8.80977C14.0331 9.07679 14.4746 9.07587 14.746 8.80702C14.8808 8.67351 14.9496 8.49794 14.9496 8.32328C14.9496 8.1477 14.8808 7.97122 14.7442 7.83771L10.6896 3.86625C10.4164 3.59923 9.97484 3.60014 9.70343 3.86899Z" fill="#868686"/>
</svg>
