<svg width="36" height="36" viewBox="0 0 36 36" fill="none" xmlns="http://www.w3.org/2000/svg">
<rect x="36" y="36" width="36" height="36" rx="10" transform="rotate(-180 36 36)" fill="#F5F4F2"/>
<path fill-rule="evenodd" clip-rule="evenodd" d="M18.4533 24.4651C18.1828 24.1972 18.181 23.7628 18.4552 23.4949L24.5602 17.5144C24.8335 17.2464 25.275 17.2473 25.5464 17.5162C25.6812 17.6497 25.75 17.8253 25.75 17.9999C25.75 18.1764 25.6812 18.352 25.5446 18.4855L19.4395 24.466C19.1663 24.7339 18.7247 24.733 18.4533 24.4651ZM18.4553 12.5057C18.1811 12.2378 18.1829 11.8034 18.4534 11.5355C18.7248 11.2666 19.1664 11.2657 19.4396 11.5328L23.4942 15.5042C23.6308 15.6377 23.6996 15.8142 23.6996 15.9898C23.6996 16.1644 23.6308 16.34 23.496 16.4735C23.2246 16.7424 22.7831 16.7433 22.5098 16.4763L18.4553 12.5057Z" fill="#868686"/>
<path fill-rule="evenodd" clip-rule="evenodd" d="M10.4533 24.4651C10.1828 24.1972 10.181 23.7628 10.4552 23.4949L16.5602 17.5144C16.8335 17.2464 17.275 17.2473 17.5464 17.5162C17.6812 17.6497 17.75 17.8253 17.75 17.9999C17.75 18.1764 17.6812 18.352 17.5446 18.4855L11.4395 24.466C11.1663 24.7339 10.7247 24.733 10.4533 24.4651ZM10.4553 12.5057C10.1811 12.2378 10.1829 11.8034 10.4534 11.5355C10.7248 11.2666 11.1664 11.2657 11.4396 11.5328L15.4942 15.5042C15.6308 15.6377 15.6996 15.8142 15.6996 15.9898C15.6996 16.1644 15.6308 16.34 15.496 16.4735C15.2246 16.7424 14.7831 16.7433 14.5098 16.4763L10.4553 12.5057Z" fill="#868686"/>
</svg>
